<svg width="200" height="200" viewBox="0 0 200 200" fill="none" xmlns="http://www.w3.org/2000/svg">
<circle cx="100" cy="100" r="100" fill="#503E8E"/>
<path d="M75 130C73.5833 130 72.3958 129.521 71.4375 128.562C70.4792 127.604 70 126.417 70 125V115H135V70H145C146.417 70 147.604 70.4792 148.562 71.4375C149.521 72.3958 150 73.5833 150 75V150L130 130H75ZM50 125V55C50 53.5833 50.4792 52.3958 51.4375 51.4375C52.3958 50.4792 53.5833 50 55 50H120C121.417 50 122.604 50.4792 123.562 51.4375C124.521 52.3958 125 53.5833 125 55V100C125 101.417 124.521 102.604 123.562 103.562C122.604 104.521 121.417 105 120 105H70L50 125ZM115 95V60H60V95H115Z" fill="white"/>
</svg>
