<svg width="200" height="200" viewBox="0 0 200 200" fill="none" xmlns="http://www.w3.org/2000/svg">
<circle cx="100" cy="100" r="100" fill="#503E8E"/>
<path d="M52 150C48.7 150 45.875 148.776 43.525 146.328C41.175 143.88 40 140.938 40 137.5V62.5C40 59.0625 41.175 56.1198 43.525 53.6719C45.875 51.224 48.7 50 52 50H88L100 62.5H148C151.3 62.5 154.125 63.724 156.475 66.1719C158.825 68.6198 160 71.5625 160 75V137.5C160 140.938 158.825 143.88 156.475 146.328C154.125 148.776 151.3 150 148 150H52ZM52 137.5H148V75H95.05L83.05 62.5H52V137.5Z" fill="white"/>
</svg>
