<svg width="201" height="201" viewBox="0 0 201 201" fill="none" xmlns="http://www.w3.org/2000/svg">
<path d="M200.111 100.5C200.111 155.728 155.339 200.5 100.111 200.5C44.8823 200.5 0.110779 155.728 0.110779 100.5C0.110779 45.2715 44.8823 0.5 100.111 0.5C155.339 0.5 200.111 45.2715 200.111 100.5Z" fill="white"/>
<path d="M100 107.5C95.2992 107.5 91.3462 106.058 88.141 103.173C84.9359 100.288 83.3333 96.7307 83.3333 92.5V47.5C83.3333 43.2693 84.9359 39.7116 88.141 36.8269C91.3462 33.9423 95.2992 32.5 100 32.5C104.701 32.5 108.654 33.9423 111.859 36.8269C115.064 39.7116 116.667 43.2693 116.667 47.5V92.5C116.667 96.7307 115.064 100.288 111.859 103.173C108.654 106.058 104.701 107.5 100 107.5ZM95.8333 163.75V137.37C82.7778 136.293 71.875 131.491 63.125 122.962C54.375 114.433 50 104.279 50 92.5H58.3333C58.3333 102.875 62.3958 111.719 70.5208 119.031C78.6458 126.344 88.4722 130 100 130C111.528 130 121.354 126.344 129.479 119.031C137.604 111.719 141.667 102.875 141.667 92.5H150C150 104.279 145.625 114.433 136.875 122.962C128.125 131.491 117.222 136.293 104.167 137.37V163.75H95.8333Z" fill="black"/>
</svg>
