<svg width="200" height="200" viewBox="0 0 200 200" fill="none" xmlns="http://www.w3.org/2000/svg">
<circle cx="100" cy="100" r="100" fill="#503E8E"/>
<path d="M83.3333 165C74.1667 165 66.3194 162.171 59.7917 156.514C53.2639 150.856 50 144.056 50 136.111C50 128.167 53.2639 121.366 59.7917 115.708C66.3194 110.051 74.1667 107.222 83.3333 107.222C86.5278 107.222 89.4792 107.553 92.1875 108.215C94.8958 108.877 97.5 109.87 100 111.194V35H150V63.8889H116.667V136.111C116.667 144.056 113.403 150.856 106.875 156.514C100.347 162.171 92.5 165 83.3333 165Z" fill="white"/>
</svg>
