<svg width="200" height="200" viewBox="0 0 200 200" fill="none" xmlns="http://www.w3.org/2000/svg">
<circle cx="100" cy="100" r="100" fill="#503E8E"/>
<path d="M57.2222 142.778H65.9306L125.667 83.0417L116.958 74.3333L57.2222 134.069V142.778ZM45 155V129.028L125.667 48.5139C126.889 47.3935 128.238 46.5278 129.715 45.9167C131.192 45.3056 132.745 45 134.375 45C136.005 45 137.583 45.3056 139.111 45.9167C140.639 46.5278 141.963 47.4444 143.083 48.6667L151.486 57.2222C152.708 58.3426 153.6 59.6667 154.16 61.1944C154.72 62.7222 155 64.25 155 65.7778C155 67.4074 154.72 68.9606 154.16 70.4375C153.6 71.9144 152.708 73.2639 151.486 74.4861L70.9722 155H45ZM121.236 78.7639L116.958 74.3333L125.667 83.0417L121.236 78.7639Z" fill="white"/>
</svg>
