<svg width="201" height="201" viewBox="0 0 201 201" fill="none" xmlns="http://www.w3.org/2000/svg">
<path d="M200.111 100.5C200.111 155.728 155.339 200.5 100.111 200.5C44.8823 200.5 0.110779 155.728 0.110779 100.5C0.110779 45.2715 44.8823 0.5 100.111 0.5C155.339 0.5 200.111 45.2715 200.111 100.5Z" fill="white"/>
<path d="M95.8334 125.635V63.643L76.4102 80.3468L70.5127 75.1924L100 49.8333L129.487 75.1924L123.59 80.3468L104.167 63.643V125.635H95.8334ZM55.1281 150.167C51.2927 150.167 48.0903 149.062 45.5209 146.852C42.9514 144.642 41.6667 141.888 41.6667 138.59V121.224H50V138.59C50 139.692 50.5342 140.703 51.6025 141.622C52.671 142.541 53.8462 143 55.1281 143H144.872C146.154 143 147.329 142.541 148.398 141.622C149.466 140.703 150 139.692 150 138.59V121.224H158.333V138.59C158.333 141.888 157.049 144.642 154.479 146.852C151.91 149.062 148.707 150.167 144.872 150.167H55.1281Z" fill="black"/>
</svg>
